<svg version="1.1" viewBox="0 0 407.56 410.41" xmlns="http://www.w3.org/2000/svg" xmlns:xlink="http://www.w3.org/1999/xlink"><defs><style>.cls-1{fill:#fff;}.cls-2{fill:url(#GradientFill_2);}.cls-3{fill:#3d3d3d;}.cls-4{fill:url(#GradientFill_2-2);}.cls-5{fill:url(#GradientFill_2-3);}.cls-6{fill:#343433;}</style><linearGradient id="GradientFill_2" x1="-251.27" x2="665.73" y1="225.21" y2="225.21" gradientUnits="userSpaceOnUse"><stop stop-color="#fff584" offset="0"/><stop stop-color="#bf933a" offset=".26"/><stop stop-color="#c79f47" offset=".46"/><stop stop-color="#fff8ad" offset=".75"/><stop stop-color="#c79f47" offset="1"/></linearGradient><linearGradient id="GradientFill_2-2" x1="-440.25" x2="463.2" y1="-120.69" y2="396.1" gradientTransform="translate(0,35.78)" xlink:href="#GradientFill_2"/><linearGradient id="GradientFill_2-3" x1="133.91" x2="273.65" y1="74.01" y2="74.01" xlink:href="#GradientFill_2"/><linearGradient id="linearGradient27" x1="-251.27" x2="665.73" y1="225.21" y2="225.21" gradientUnits="userSpaceOnUse" xlink:href="#GradientFill_2"/></defs><title>Asset 8</title><g data-name="Layer 2"><path class="cls-1" d="M60.31,329.38c-21.7,2.73-34.38,5.61-42.07,7.56a9.58,9.58,0,0,1-2.38.3c-4.85,0-8.82-3.62-8.93-8.11L0,242.93v-.17a8.41,8.41,0,0,1,7-8.1c5.8-1.21,18-3.56,36.68-6.09V133.42L131.05,83a75.41,75.41,0,0,1-.48-8.5,74.46,74.46,0,0,1,148.92,0A75.41,75.41,0,0,1,279,83l87.4,50.46v95.15c18.65,2.53,30.88,4.88,36.69,6.09a8.42,8.42,0,0,1,7,8.1v.17l-6.93,86.2a8.08,8.08,0,0,1-2.9,5.93,9.36,9.36,0,0,1-6,2.18h0a9.45,9.45,0,0,1-2.37-.3c-7.69-1.95-20.37-4.83-42.08-7.56L205,412.94Z"/><polygon class="cls-2" points="203.78 44.77 47.52 134.99 47.52 315.43 203.78 405.64 360.04 315.43 360.04 134.99" fill="url(#linearGradient27)"/><polygon class="cls-3" points="203.78 54.29 55.76 139.75 55.76 310.67 203.78 396.12 351.8 310.67 351.8 139.75"/><path class="cls-4" d="m396.54 328.28c0 2.75-3 4.73-6.09 4-16.67-4.22-63.38-14.62-186.67-14.62s-170 10.4-186.67 14.62c-3 0.77-6.1-1.21-6.1-4l-6.88-85.64a4.28 4.28 0 0 1 3.64-4c15.69-3.28 82-15.57 196-15.57s180.32 12.29 196 15.57a4.28 4.28 0 0 1 3.64 4z" fill="url(#GradientFill_2-2)"/><path class="cls-3" d="m67.43 284.63c-0.9-5.63-1.94-12.45-2.78-19.3h-0.21c-0.73 6.18-1.87 13.13-3 18.87l-3.44 19.1-8.32 1-7.25-17.61c-2.22-5.33-4.64-11.84-6.51-17.85h-0.14c0.5 6.39 1.18 13.68 1.54 19.59l1.35 18-9.85 1.2-2.82-47.44 14.18-1.73 6.53 15.16c2.14 5.27 4.32 10.95 6 16.34h0.21c0.66-5.61 1.51-12 2.41-17.45l3.11-16.26 13.91-1.7 8.33 46.76-10.41 1.28z"/><path class="cls-3" d="m28.58 307.87v-0.21l-2.76-47.64 14.52-1.78 6.59 15.3c2.57 6.34 4.45 11.42 5.91 15.94 0.55-4.59 1.38-11.13 2.36-17l3.14-16.41 14.24-1.74 8.42 47.14-10.84 1.31v-0.19l-2.9-17.94c-0.8-5-1.83-11.66-2.68-18.5-0.7 5.7-1.76 12.25-2.92 18.11l-3.54 19.22-8.62 1.06v-0.15l-7.31-17.61c-2.27-5.46-4.49-11.5-6.16-16.76 0.15 1.89 0.31 3.84 0.47 5.8 0.36 4.32 0.74 8.79 1 12.63l1.36 18.18zm-2.34-47.5 2.72 47 9.44-1.16-1.33-17.79c-0.24-3.84-0.61-8.31-1-12.63-0.2-2.36-0.4-4.72-0.57-7v-0.2l0.5-0.06 0.05 0.17c1.71 5.49 4.08 12 6.5 17.83l7.2 17.47 8-1 3.46-18.93c1.22-6.12 2.31-13 3-18.86v-0.16l0.57-0.07v0.2c0.87 7.12 2 14 2.78 19.3l2.87 17.74 10-1.22-8.19-46.22-13.56 1.66-3.09 16.12c-1 6.07-1.86 12.83-2.41 17.43v0.16l-0.53 0.07-0.05-0.16c-1.48-4.62-3.39-9.81-6-16.34l-6.46-15z"/><path class="cls-3" d="m95.74 252.78 1.89 27.24c0.57 8.14 3.94 12.07 9.42 11.69s8.43-4.54 7.85-12.89l-1.9-27.26 10.67-0.74 1.84 26.54c1 14.6-5.87 22.06-18.23 22.92-11.93 0.83-19.41-5.28-20.46-20.38l-1.82-26.39z"/><path class="cls-3" d="m105.24 300.56c-5.19 0-9.35-1.46-12.4-4.35-3.61-3.42-5.7-8.9-6.21-16.29l-1.85-26.6 11.15-0.78v0.24l1.89 27.24c0.55 7.9 3.72 11.88 9.21 11.5s8.22-4.66 7.66-12.68l-1.91-27.44 11.08-0.77v0.15l1.85 26.53c1 14.23-5.38 22.24-18.42 23.14-0.69 0.08-1.38 0.11-2.05 0.11zm-20-46.86 1.76 26.19c0.51 7.29 2.56 12.68 6.09 16 3.36 3.18 8.12 4.58 14.16 4.16 12.77-0.89 19-8.74 18-22.71l-1.83-26.33-10.27 0.71 1.88 27c0.58 8.28-2.13 12.69-8 13.1-5.74 0.4-9.06-3.71-9.63-11.88l-1.88-27z"/><path class="cls-3" d="m135.82 286.71a27.31 27.31 0 0 0 12 2.53c4.92-0.18 7.45-2.31 7.34-5.41s-2.42-4.56-8.19-6.39c-8-2.46-13.27-6.63-13.52-13.53-0.29-8.08 6.24-14.52 17.42-14.92a29 29 0 0 1 12.19 2l-2.06 8.69a22.65 22.65 0 0 0-10-1.9c-4.64 0.17-6.82 2.36-6.73 4.82 0.11 3 2.83 4.26 9 6.36 8.48 2.8 12.58 7 12.82 13.69 0.29 8-5.59 14.92-18.6 15.39-5.41 0.2-10.81-1-13.53-2.4z"/><path class="cls-3" d="m146.32 298.28a30.58 30.58 0 0 1-12.45-2.44l-0.14-0.07 1.94-9.35 0.23 0.11a27.12 27.12 0 0 0 11.9 2.51 9.63 9.63 0 0 0 5.44-1.57 4.21 4.21 0 0 0 1.71-3.63c-0.1-2.76-2.13-4.33-8-6.21-8.83-2.72-13.43-7.33-13.66-13.71a13.16 13.16 0 0 1 4.48-10.5c3.17-2.84 7.72-4.44 13.14-4.63a29.59 29.59 0 0 1 12.26 2l0.16 0.06-2.17 9.15-0.22-0.1a22.55 22.55 0 0 0-9.91-1.88 8.63 8.63 0 0 0-5 1.51 3.65 3.65 0 0 0-1.51 3.1c0.1 2.9 2.79 4.11 8.89 6.18 8.72 2.87 12.71 7.15 12.95 13.88a13.32 13.32 0 0 1-4.37 10.65c-3.3 3-8.29 4.72-14.42 5zm-12.13-2.74a30.9 30.9 0 0 0 13.3 2.31c6-0.22 10.93-1.89 14.15-4.84a12.93 12.93 0 0 0 4.25-10.34c-0.24-6.53-4.15-10.69-12.68-13.5-6.29-2.13-9.06-3.4-9.17-6.55a4.1 4.1 0 0 1 1.67-3.44 9 9 0 0 1 5.25-1.59 22.71 22.71 0 0 1 9.86 1.81l2-8.33a29.27 29.27 0 0 0-11.94-1.88c-5.32 0.2-9.78 1.76-12.88 4.53a12.83 12.83 0 0 0-4.34 10.19c0.22 6.27 4.6 10.63 13.37 13.34 6 1.92 8.23 3.64 8.33 6.58a4.56 4.56 0 0 1-1.86 4 9.84 9.84 0 0 1-5.67 1.65 27.69 27.69 0 0 1-11.83-2.47z"/><path class="cls-3" d="m182.29 258.02-12.73 0.12-0.09-9 36.45-0.37 0.09 9-12.95 0.13 0.39 38.42-10.77 0.11z"/><path class="cls-3" d="m182.48 296.64-0.39-38.42-12.73 0.13-0.1-9.42 36.86-0.37 0.09 9.42-12.94 0.13 0.38 38.42zm0-38.83 0.38 38.42 10.36-0.1-0.38-38.42 12.94-0.13-0.08-8.6-36.05 0.36 0.09 8.6z"/><path class="cls-3" d="m223.73 274.38v7.1l-18.44-0.12v-7.11z"/><path class="cls-3" d="m223.88 281.69-18.88-0.13 0.05-7.51 18.84 0.12zm-18.43-0.53 18 0.12v-6.7l-18-0.12z"/><path class="cls-3" d="m231.4 249.66a88.17 88.17 0 0 1 14.52-0.58c6.61 0.19 11.29 1.59 14.38 4.21a13.84 13.84 0 0 1 4.76 11.11 15.17 15.17 0 0 1-4.68 11.14c-3.75 3.34-9.21 4.74-15.54 4.56a28.5 28.5 0 0 1-3.65-0.31l-0.48 16.99-10.62-0.3zm10 21.83a17.28 17.28 0 0 0 3.58 0.38c5.7 0.16 9.29-2.63 9.43-7.48 0.12-4.36-2.83-7.05-8.18-7.2a18.23 18.23 0 0 0-4.44 0.3z"/><path class="cls-3" d="m240.91 296.95-11-0.31v-0.2l1.31-47h0.17a89.29 89.29 0 0 1 14.55-0.58c6.61 0.18 11.35 1.58 14.51 4.25a14 14 0 0 1 4.83 11.28 15.45 15.45 0 0 1-4.74 11.28c-3.6 3.2-9 4.8-15.69 4.61a26.42 26.42 0 0 1-3.45-0.28zm-10.61-0.71 10.22 0.29 0.47-17h0.23a27.5 27.5 0 0 0 3.62 0.31 28.67 28.67 0 0 0 8.68-1 16.82 16.82 0 0 0 6.73-3.56 15.06 15.06 0 0 0 4.61-11 13.63 13.63 0 0 0-4.69-11c-3.09-2.61-7.75-4-14.26-4.15a89.16 89.16 0 0 0-14.31 0.55zm15.15-24.16h-0.45a16.25 16.25 0 0 1-3.62-0.39h-0.16l0.4-14.31h0.15a17.39 17.39 0 0 1 4.5-0.3 9.56 9.56 0 0 1 6.27 2.07 6.57 6.57 0 0 1 2.1 5.33 7.32 7.32 0 0 1-2.7 5.78 10.38 10.38 0 0 1-6.49 1.82zm-3.82-0.75a17 17 0 0 0 3.37 0.33 10.2 10.2 0 0 0 6.67-1.81 7 7 0 0 0 2.56-5.47 6.16 6.16 0 0 0-2-5 9.31 9.31 0 0 0-6-2 18.94 18.94 0 0 0-4.24 0.26z"/><path class="cls-3" d="m273.3 250.37 10.75 0.6-2.17 38.37 18.83 1.06-0.5 9-29.58-1.67z"/><path class="cls-3" d="m300.4 299.61-30-1.69 2.69-47.77 11.16 0.63-2.16 38.37 18.83 1.06zm-29.56-2.08 29.16 1.65 0.48-8.59-18.83-1.06 2.16-38.37-10.34-0.58z"/><path class="cls-3" d="m318.65 288.69-4.49 11.81-11.07-1 18.79-45.9 14 1.29 10.29 48.59-11.49-1.06-2.53-12.46zm12.72-6.91-2-10.3c-0.59-2.88-1.1-6.46-1.55-9.33h-0.14c-1 2.74-2 6.25-3 8.91l-3.73 9.76z"/><path class="cls-3" d="m346.45 303.68-11.92-1.09-2.53-12.46-13.22-1.22-4.48 11.81-11.5-1.06 18.95-46.3 14.32 1.33v0.14zm-11.58-1.47 11.06 1-10.2-48.17-13.73-1.26-18.63 45.51 10.65 1 4.48-11.82 13.84 1.31zm-3.25-20.18-11-1 3.82-10c0.61-1.59 1.23-3.5 1.83-5.34 0.41-1.27 0.8-2.47 1.18-3.57v-0.15l0.46 0.05 0.24 1.59c0.39 2.56 0.84 5.47 1.33 7.88zm-10.41-1.36 9.9 0.91-2-10c-0.49-2.42-0.94-5.33-1.33-7.9l-0.14-0.91c-0.33 0.95-0.66 2-1 3.06-0.6 1.84-1.21 3.75-1.83 5.35z"/><path class="cls-3" d="m356.23 304.86 2.59-19.25-11.1-29.76 12.13 1.64 3.29 11.95c1 3.61 1.64 6.26 2.41 9.48h0.14c1.44-2.78 2.92-5.35 4.77-8.51l6.27-10.63 11.93 1.61-19.19 25.32-2.64 19.6z"/><path class="cls-3" d="m367 306.52-11-1.48 2.62-19.4-11.21-30 12.6 1.71 3.32 12.07c0.95 3.41 1.55 5.88 2.34 9.16 1.42-2.72 2.87-5.24 4.62-8.22l6.33-10.77 12.38 1.63-19.33 25.56zm-10.55-1.83 10.2 1.38 2.63-19.45 19-25.09-11.44-1.54-6.2 10.54c-1.81 3.09-3.3 5.67-4.77 8.51l-0.07 0.12h-0.42v-0.14c-0.82-3.44-1.43-6-2.41-9.48l-3.25-11.82-11.72-1.62 11 29.49v0.05z"/><path class="cls-5" d="m273.65 74a69.87 69.87 0 1 1-69.87-69.87 69.88 69.88 0 0 1 69.87 69.87z" fill="url(#GradientFill_2-3)"/><path class="cls-6" d="m260.06 74a56.28 56.28 0 1 1-56.28-56.27 56.28 56.28 0 0 1 56.28 56.27z"/><path class="cls-1" d="m170.39 91.42c-4.46-4.46-8.33-8-11.7-11.12l9.44-9.43 5.33 4.46 0.22-0.22a17.52 17.52 0 0 1 5.12-16.53c4.68-4.68 10.68-5.85 15.95-3.66l0.14-0.14a21.88 21.88 0 0 1 0.3-9.07 19.15 19.15 0 0 1 5-8.56c6.88-6.87 16.9-7.24 27.57 3.44l21.07 21.06-10.78 10.82-19.39-19.38c-5.19-5.19-9.87-6.5-13.45-2.92-2.64 2.63-2.64 6.14-1.32 9.07a15.92 15.92 0 0 0 2.41 3.14l20.92 20.92-10.82 10.82-20-20c-4.47-4.45-9.15-5.92-12.73-2.33-2.85 2.85-2.34 6.72-1.24 9.14a10.63 10.63 0 0 0 2.41 3.29l20.73 20.78-10.82 10.82z"/></g><g id="metacritic" transform="translate(0 -.00029633)" fill="#fff"><path class="cls-1" d="m83 178.86c0-3.29-0.11-6.1-0.21-8.43h6.91l0.38 3.57h0.16a9.16 9.16 0 0 1 8-4.16 7.5 7.5 0 0 1 7.24 4.48h0.11a11.71 11.71 0 0 1 3.4-3.18 9.48 9.48 0 0 1 5-1.3c5.08 0 8.92 3.56 8.92 11.45v15.56h-8v-14.37c0-3.84-1.24-6-3.89-6a4 4 0 0 0-3.78 2.86 6.79 6.79 0 0 0-0.32 2.11v15.45h-8v-14.8c0-3.35-1.19-5.62-3.78-5.62a4.19 4.19 0 0 0-3.84 3 5.46 5.46 0 0 0-0.32 2v15.4h-7.98z"/><path class="cls-1" d="m135.77 186.26c0.27 3.41 3.62 5 7.45 5a23.4 23.4 0 0 0 7.3-1.08l1.08 5.56a26.09 26.09 0 0 1-9.56 1.62c-9 0-14.11-5.18-14.11-13.45 0-6.7 4.16-14.1 13.35-14.1 8.53 0 11.78 6.64 11.78 13.18a20.31 20.31 0 0 1-0.27 3.24zm9.67-5.62c0-2-0.87-5.34-4.65-5.34-3.46 0-4.86 3.13-5.08 5.34z"/><path class="cls-1" d="m168.24 162.87v7.56h5.89v6h-5.89v9.57c0 3.18 0.76 4.64 3.24 4.64a14.2 14.2 0 0 0 2.43-0.21l0.06 6.21a16.2 16.2 0 0 1-5.35 0.7 8.53 8.53 0 0 1-6.16-2.27c-1.51-1.56-2.27-4.1-2.27-7.83v-10.76h-3.51v-6h3.51v-5.72z"/><path class="cls-1" d="m196.06 196.85-0.48-2.65h-0.17a9.5 9.5 0 0 1-7.56 3.25c-5.35 0-8.54-3.89-8.54-8.11 0-6.86 6.16-10.15 15.51-10.1v-0.38c0-1.4-0.76-3.4-4.81-3.4a14.86 14.86 0 0 0-7.29 2l-1.51-5.3a21.84 21.84 0 0 1 10.26-2.32c8.81 0 11.62 5.19 11.62 11.4v9.18a41.12 41.12 0 0 0 0.37 6.43zm-1-12.48c-4.32-0.05-7.67 1-7.67 4.16a3 3 0 0 0 3.24 3.14 4.5 4.5 0 0 0 4.27-3 5.78 5.78 0 0 0 0.16-1.4z"/><path class="cls-1" d="m228.32 196.2a20 20 0 0 1-7.35 1.19c-8.54 0-14-5.18-14-13.5 0-7.73 5.29-14 15.13-14a19 19 0 0 1 6.26 1l-1.29 6.1a11.35 11.35 0 0 0-4.6-0.81c-4.32 0-7.13 3.08-7.07 7.4 0 4.86 3.24 7.4 7.24 7.4a12.64 12.64 0 0 0 4.7-0.81z"/><path class="cls-1" d="m233.94 179.13c0-3.89-0.11-6.43-0.22-8.7h7.08l0.27 4.87h0.22a7.76 7.76 0 0 1 7.13-5.46 8.39 8.39 0 0 1 1.73 0.11v7.72a11.77 11.77 0 0 0-2.22-0.21c-3 0-5.08 1.62-5.62 4.16a9.45 9.45 0 0 0-0.16 1.83v13.4h-8.21z"/><path class="cls-1" d="m264 163.09a4.12 4.12 0 0 1-4.43 4.1 4.13 4.13 0 1 1 0-8.26 4.12 4.12 0 0 1 4.43 4.16zm-8.48 33.76v-26.42h8.21v26.42z"/><path class="cls-1" d="m280.62 162.87v7.56h5.89v6h-5.89v9.57c0 3.18 0.75 4.64 3.24 4.64a14.3 14.3 0 0 0 2.43-0.21v6.21a16.16 16.16 0 0 1-5.35 0.7 8.52 8.52 0 0 1-6.15-2.27c-1.52-1.56-2.27-4.1-2.27-7.83v-10.76h-3.51v-6h3.51v-5.72z"/><path class="cls-1" d="m300.82 163.09a4.12 4.12 0 0 1-4.43 4.1 4.1301 4.1301 0 1 1 0.06-8.26 4.11 4.11 0 0 1 4.37 4.16zm-8.48 33.76v-26.42h8.21v26.42z"/><path class="cls-1" d="m328.05 196.2a20 20 0 0 1-7.34 1.19c-8.54 0-14-5.18-14-13.5 0-7.73 5.3-14 15.13-14a19 19 0 0 1 6.27 1l-1.3 6.1a11.26 11.26 0 0 0-4.59-0.81c-4.32 0-7.13 3.08-7.08 7.4 0 4.86 3.24 7.4 7.24 7.4a12.6 12.6 0 0 0 4.7-0.81z"/></g></svg>
